<mxfile host="app.diagrams.net" modified="2023-06-21T20:45:38.314Z" agent="Mozilla/5.0 (Windows NT 10.0; Win64; x64) AppleWebKit/537.36 (KHTML, like Gecko) Chrome/114.0.0.0 Safari/537.36" etag="x5GvAGZf4pdUs0Vz7Bom" version="21.5.0" type="device">
  <diagram id="C5RBs43oDa-KdzZeNtuy" name="Page-1">
    <mxGraphModel dx="1764" dy="829" grid="1" gridSize="10" guides="1" tooltips="1" connect="1" arrows="1" fold="1" page="1" pageScale="1" pageWidth="1169" pageHeight="2000" math="0" shadow="0">
      <root>
        <mxCell id="WIyWlLk6GJQsqaUBKTNV-0" />
        <mxCell id="WIyWlLk6GJQsqaUBKTNV-1" parent="WIyWlLk6GJQsqaUBKTNV-0" />
        <mxCell id="rjAehG90FFGddPImVT8I-84" style="edgeStyle=orthogonalEdgeStyle;rounded=0;orthogonalLoop=1;jettySize=auto;html=1;startArrow=classic;startFill=1;" edge="1" parent="WIyWlLk6GJQsqaUBKTNV-1" source="rjAehG90FFGddPImVT8I-0" target="rjAehG90FFGddPImVT8I-2">
          <mxGeometry relative="1" as="geometry">
            <Array as="points">
              <mxPoint x="584" y="550" />
              <mxPoint x="584" y="550" />
            </Array>
          </mxGeometry>
        </mxCell>
        <mxCell id="rjAehG90FFGddPImVT8I-118" value="Local Database Connection" style="edgeLabel;html=1;align=center;verticalAlign=middle;resizable=0;points=[];" vertex="1" connectable="0" parent="rjAehG90FFGddPImVT8I-84">
          <mxGeometry x="0.6591" relative="1" as="geometry">
            <mxPoint x="1" y="54" as="offset" />
          </mxGeometry>
        </mxCell>
        <mxCell id="rjAehG90FFGddPImVT8I-96" style="edgeStyle=orthogonalEdgeStyle;rounded=0;orthogonalLoop=1;jettySize=auto;html=1;startArrow=classic;startFill=1;" edge="1" parent="WIyWlLk6GJQsqaUBKTNV-1" source="rjAehG90FFGddPImVT8I-0" target="rjAehG90FFGddPImVT8I-3">
          <mxGeometry relative="1" as="geometry" />
        </mxCell>
        <mxCell id="rjAehG90FFGddPImVT8I-116" value="Cron Job&lt;br&gt;Routes / Requests" style="edgeLabel;html=1;align=center;verticalAlign=middle;resizable=0;points=[];" vertex="1" connectable="0" parent="rjAehG90FFGddPImVT8I-96">
          <mxGeometry x="0.2355" y="-4" relative="1" as="geometry">
            <mxPoint x="12" y="4" as="offset" />
          </mxGeometry>
        </mxCell>
        <mxCell id="rjAehG90FFGddPImVT8I-97" style="edgeStyle=orthogonalEdgeStyle;rounded=0;orthogonalLoop=1;jettySize=auto;html=1;startArrow=classic;startFill=1;" edge="1" parent="WIyWlLk6GJQsqaUBKTNV-1" source="rjAehG90FFGddPImVT8I-0" target="rjAehG90FFGddPImVT8I-1">
          <mxGeometry relative="1" as="geometry" />
        </mxCell>
        <mxCell id="rjAehG90FFGddPImVT8I-117" value="Routes / Requests" style="edgeLabel;html=1;align=center;verticalAlign=middle;resizable=0;points=[];" vertex="1" connectable="0" parent="rjAehG90FFGddPImVT8I-97">
          <mxGeometry x="0.3248" y="2" relative="1" as="geometry">
            <mxPoint x="-1" y="-27" as="offset" />
          </mxGeometry>
        </mxCell>
        <mxCell id="rjAehG90FFGddPImVT8I-0" value="Server - Node.js" style="rounded=0;whiteSpace=wrap;html=1;" vertex="1" parent="WIyWlLk6GJQsqaUBKTNV-1">
          <mxGeometry x="524" y="665" width="120" height="60" as="geometry" />
        </mxCell>
        <mxCell id="rjAehG90FFGddPImVT8I-139" style="edgeStyle=orthogonalEdgeStyle;rounded=0;orthogonalLoop=1;jettySize=auto;html=1;startArrow=classic;startFill=1;" edge="1" parent="WIyWlLk6GJQsqaUBKTNV-1" source="rjAehG90FFGddPImVT8I-1" target="rjAehG90FFGddPImVT8I-120">
          <mxGeometry relative="1" as="geometry" />
        </mxCell>
        <mxCell id="rjAehG90FFGddPImVT8I-140" style="edgeStyle=orthogonalEdgeStyle;rounded=0;orthogonalLoop=1;jettySize=auto;html=1;startArrow=classic;startFill=1;" edge="1" parent="WIyWlLk6GJQsqaUBKTNV-1" source="rjAehG90FFGddPImVT8I-1" target="rjAehG90FFGddPImVT8I-122">
          <mxGeometry relative="1" as="geometry" />
        </mxCell>
        <mxCell id="rjAehG90FFGddPImVT8I-1" value="Client - React.js" style="rounded=0;whiteSpace=wrap;html=1;" vertex="1" parent="WIyWlLk6GJQsqaUBKTNV-1">
          <mxGeometry x="524" y="880" width="120" height="60" as="geometry" />
        </mxCell>
        <mxCell id="rjAehG90FFGddPImVT8I-76" style="edgeStyle=orthogonalEdgeStyle;rounded=0;orthogonalLoop=1;jettySize=auto;html=1;exitX=0.5;exitY=0;exitDx=0;exitDy=0;startArrow=classic;startFill=1;" edge="1" parent="WIyWlLk6GJQsqaUBKTNV-1" source="rjAehG90FFGddPImVT8I-2" target="rjAehG90FFGddPImVT8I-36">
          <mxGeometry relative="1" as="geometry" />
        </mxCell>
        <mxCell id="rjAehG90FFGddPImVT8I-130" value="Query" style="edgeLabel;html=1;align=center;verticalAlign=middle;resizable=0;points=[];" vertex="1" connectable="0" parent="rjAehG90FFGddPImVT8I-76">
          <mxGeometry x="-0.244" y="5" relative="1" as="geometry">
            <mxPoint x="6" y="-20" as="offset" />
          </mxGeometry>
        </mxCell>
        <mxCell id="rjAehG90FFGddPImVT8I-77" style="edgeStyle=orthogonalEdgeStyle;rounded=0;orthogonalLoop=1;jettySize=auto;html=1;startArrow=classic;startFill=1;" edge="1" parent="WIyWlLk6GJQsqaUBKTNV-1" source="rjAehG90FFGddPImVT8I-2" target="rjAehG90FFGddPImVT8I-46">
          <mxGeometry relative="1" as="geometry" />
        </mxCell>
        <mxCell id="rjAehG90FFGddPImVT8I-132" value="Query" style="edgeLabel;html=1;align=center;verticalAlign=middle;resizable=0;points=[];" vertex="1" connectable="0" parent="rjAehG90FFGddPImVT8I-77">
          <mxGeometry x="0.1341" y="5" relative="1" as="geometry">
            <mxPoint x="5" y="75" as="offset" />
          </mxGeometry>
        </mxCell>
        <mxCell id="rjAehG90FFGddPImVT8I-78" style="edgeStyle=orthogonalEdgeStyle;rounded=0;orthogonalLoop=1;jettySize=auto;html=1;startArrow=classic;startFill=1;" edge="1" parent="WIyWlLk6GJQsqaUBKTNV-1" source="rjAehG90FFGddPImVT8I-2" target="rjAehG90FFGddPImVT8I-66">
          <mxGeometry relative="1" as="geometry" />
        </mxCell>
        <mxCell id="rjAehG90FFGddPImVT8I-133" value="Query" style="edgeLabel;html=1;align=center;verticalAlign=middle;resizable=0;points=[];" vertex="1" connectable="0" parent="rjAehG90FFGddPImVT8I-78">
          <mxGeometry x="0.2517" y="2" relative="1" as="geometry">
            <mxPoint x="2" y="56" as="offset" />
          </mxGeometry>
        </mxCell>
        <mxCell id="rjAehG90FFGddPImVT8I-79" style="edgeStyle=orthogonalEdgeStyle;rounded=0;orthogonalLoop=1;jettySize=auto;html=1;startArrow=classic;startFill=1;" edge="1" parent="WIyWlLk6GJQsqaUBKTNV-1" source="rjAehG90FFGddPImVT8I-2" target="rjAehG90FFGddPImVT8I-56">
          <mxGeometry relative="1" as="geometry" />
        </mxCell>
        <mxCell id="rjAehG90FFGddPImVT8I-134" value="Query" style="edgeLabel;html=1;align=center;verticalAlign=middle;resizable=0;points=[];" vertex="1" connectable="0" parent="rjAehG90FFGddPImVT8I-79">
          <mxGeometry x="0.9407" y="2" relative="1" as="geometry">
            <mxPoint x="2" y="15" as="offset" />
          </mxGeometry>
        </mxCell>
        <mxCell id="rjAehG90FFGddPImVT8I-80" style="edgeStyle=orthogonalEdgeStyle;rounded=0;orthogonalLoop=1;jettySize=auto;html=1;startArrow=classic;startFill=1;" edge="1" parent="WIyWlLk6GJQsqaUBKTNV-1" source="rjAehG90FFGddPImVT8I-2" target="rjAehG90FFGddPImVT8I-26">
          <mxGeometry relative="1" as="geometry" />
        </mxCell>
        <mxCell id="rjAehG90FFGddPImVT8I-135" value="Query" style="edgeLabel;html=1;align=center;verticalAlign=middle;resizable=0;points=[];" vertex="1" connectable="0" parent="rjAehG90FFGddPImVT8I-80">
          <mxGeometry x="-0.1058" y="-1" relative="1" as="geometry">
            <mxPoint x="-1" y="56" as="offset" />
          </mxGeometry>
        </mxCell>
        <mxCell id="rjAehG90FFGddPImVT8I-81" style="edgeStyle=orthogonalEdgeStyle;rounded=0;orthogonalLoop=1;jettySize=auto;html=1;startArrow=classic;startFill=1;" edge="1" parent="WIyWlLk6GJQsqaUBKTNV-1" source="rjAehG90FFGddPImVT8I-2" target="rjAehG90FFGddPImVT8I-16">
          <mxGeometry relative="1" as="geometry" />
        </mxCell>
        <mxCell id="rjAehG90FFGddPImVT8I-136" value="Query" style="edgeLabel;html=1;align=center;verticalAlign=middle;resizable=0;points=[];" vertex="1" connectable="0" parent="rjAehG90FFGddPImVT8I-81">
          <mxGeometry x="0.3822" y="2" relative="1" as="geometry">
            <mxPoint x="2" y="31" as="offset" />
          </mxGeometry>
        </mxCell>
        <mxCell id="rjAehG90FFGddPImVT8I-82" style="edgeStyle=orthogonalEdgeStyle;rounded=0;orthogonalLoop=1;jettySize=auto;html=1;startArrow=classic;startFill=1;" edge="1" parent="WIyWlLk6GJQsqaUBKTNV-1" source="rjAehG90FFGddPImVT8I-2" target="rjAehG90FFGddPImVT8I-6">
          <mxGeometry relative="1" as="geometry" />
        </mxCell>
        <mxCell id="rjAehG90FFGddPImVT8I-137" value="Query" style="edgeLabel;html=1;align=center;verticalAlign=middle;resizable=0;points=[];" vertex="1" connectable="0" parent="rjAehG90FFGddPImVT8I-82">
          <mxGeometry x="0.687" y="-2" relative="1" as="geometry">
            <mxPoint x="-2" y="29" as="offset" />
          </mxGeometry>
        </mxCell>
        <mxCell id="rjAehG90FFGddPImVT8I-2" value="Database - MySQL" style="rounded=0;whiteSpace=wrap;html=1;" vertex="1" parent="WIyWlLk6GJQsqaUBKTNV-1">
          <mxGeometry x="524" y="450" width="120" height="60" as="geometry" />
        </mxCell>
        <mxCell id="rjAehG90FFGddPImVT8I-115" style="edgeStyle=orthogonalEdgeStyle;rounded=0;orthogonalLoop=1;jettySize=auto;html=1;startArrow=classic;startFill=1;" edge="1" parent="WIyWlLk6GJQsqaUBKTNV-1" source="rjAehG90FFGddPImVT8I-3" target="rjAehG90FFGddPImVT8I-102">
          <mxGeometry relative="1" as="geometry" />
        </mxCell>
        <mxCell id="rjAehG90FFGddPImVT8I-119" value="Unknown" style="edgeLabel;html=1;align=center;verticalAlign=middle;resizable=0;points=[];" vertex="1" connectable="0" parent="rjAehG90FFGddPImVT8I-115">
          <mxGeometry x="-0.7067" y="-2" relative="1" as="geometry">
            <mxPoint x="-42" y="2" as="offset" />
          </mxGeometry>
        </mxCell>
        <mxCell id="rjAehG90FFGddPImVT8I-3" value="Third-Party Stock API" style="rounded=0;whiteSpace=wrap;html=1;" vertex="1" parent="WIyWlLk6GJQsqaUBKTNV-1">
          <mxGeometry x="280" y="665" width="120" height="60" as="geometry" />
        </mxCell>
        <mxCell id="rjAehG90FFGddPImVT8I-6" value="Users" style="swimlane;fontStyle=0;childLayout=stackLayout;horizontal=1;startSize=30;horizontalStack=0;resizeParent=1;resizeParentMax=0;resizeLast=0;collapsible=1;marginBottom=0;whiteSpace=wrap;html=1;" vertex="1" parent="WIyWlLk6GJQsqaUBKTNV-1">
          <mxGeometry x="34" y="20" width="140" height="300" as="geometry" />
        </mxCell>
        <mxCell id="rjAehG90FFGddPImVT8I-7" value="&lt;b&gt;&lt;u&gt;user_id&lt;/u&gt;&lt;/b&gt;" style="text;strokeColor=none;fillColor=none;align=left;verticalAlign=middle;spacingLeft=4;spacingRight=4;overflow=hidden;points=[[0,0.5],[1,0.5]];portConstraint=eastwest;rotatable=0;whiteSpace=wrap;html=1;" vertex="1" parent="rjAehG90FFGddPImVT8I-6">
          <mxGeometry y="30" width="140" height="30" as="geometry" />
        </mxCell>
        <mxCell id="rjAehG90FFGddPImVT8I-8" value="username" style="text;strokeColor=none;fillColor=none;align=left;verticalAlign=middle;spacingLeft=4;spacingRight=4;overflow=hidden;points=[[0,0.5],[1,0.5]];portConstraint=eastwest;rotatable=0;whiteSpace=wrap;html=1;" vertex="1" parent="rjAehG90FFGddPImVT8I-6">
          <mxGeometry y="60" width="140" height="30" as="geometry" />
        </mxCell>
        <mxCell id="rjAehG90FFGddPImVT8I-10" value="email" style="text;strokeColor=none;fillColor=none;align=left;verticalAlign=middle;spacingLeft=4;spacingRight=4;overflow=hidden;points=[[0,0.5],[1,0.5]];portConstraint=eastwest;rotatable=0;whiteSpace=wrap;html=1;" vertex="1" parent="rjAehG90FFGddPImVT8I-6">
          <mxGeometry y="90" width="140" height="30" as="geometry" />
        </mxCell>
        <mxCell id="rjAehG90FFGddPImVT8I-12" value="password" style="text;strokeColor=none;fillColor=none;align=left;verticalAlign=middle;spacingLeft=4;spacingRight=4;overflow=hidden;points=[[0,0.5],[1,0.5]];portConstraint=eastwest;rotatable=0;whiteSpace=wrap;html=1;" vertex="1" parent="rjAehG90FFGddPImVT8I-6">
          <mxGeometry y="120" width="140" height="30" as="geometry" />
        </mxCell>
        <mxCell id="rjAehG90FFGddPImVT8I-15" value="registration_date" style="text;strokeColor=none;fillColor=none;align=left;verticalAlign=middle;spacingLeft=4;spacingRight=4;overflow=hidden;points=[[0,0.5],[1,0.5]];portConstraint=eastwest;rotatable=0;whiteSpace=wrap;html=1;" vertex="1" parent="rjAehG90FFGddPImVT8I-6">
          <mxGeometry y="150" width="140" height="30" as="geometry" />
        </mxCell>
        <mxCell id="rjAehG90FFGddPImVT8I-14" value="starting_amount" style="text;strokeColor=none;fillColor=none;align=left;verticalAlign=middle;spacingLeft=4;spacingRight=4;overflow=hidden;points=[[0,0.5],[1,0.5]];portConstraint=eastwest;rotatable=0;whiteSpace=wrap;html=1;" vertex="1" parent="rjAehG90FFGddPImVT8I-6">
          <mxGeometry y="180" width="140" height="30" as="geometry" />
        </mxCell>
        <mxCell id="rjAehG90FFGddPImVT8I-13" value="current_balance" style="text;strokeColor=none;fillColor=none;align=left;verticalAlign=middle;spacingLeft=4;spacingRight=4;overflow=hidden;points=[[0,0.5],[1,0.5]];portConstraint=eastwest;rotatable=0;whiteSpace=wrap;html=1;" vertex="1" parent="rjAehG90FFGddPImVT8I-6">
          <mxGeometry y="210" width="140" height="30" as="geometry" />
        </mxCell>
        <mxCell id="rjAehG90FFGddPImVT8I-11" value="is_email_verified" style="text;strokeColor=none;fillColor=none;align=left;verticalAlign=middle;spacingLeft=4;spacingRight=4;overflow=hidden;points=[[0,0.5],[1,0.5]];portConstraint=eastwest;rotatable=0;whiteSpace=wrap;html=1;" vertex="1" parent="rjAehG90FFGddPImVT8I-6">
          <mxGeometry y="240" width="140" height="30" as="geometry" />
        </mxCell>
        <mxCell id="rjAehG90FFGddPImVT8I-9" value="verification_token" style="text;strokeColor=none;fillColor=none;align=left;verticalAlign=middle;spacingLeft=4;spacingRight=4;overflow=hidden;points=[[0,0.5],[1,0.5]];portConstraint=eastwest;rotatable=0;whiteSpace=wrap;html=1;" vertex="1" parent="rjAehG90FFGddPImVT8I-6">
          <mxGeometry y="270" width="140" height="30" as="geometry" />
        </mxCell>
        <mxCell id="rjAehG90FFGddPImVT8I-16" value="Transactions" style="swimlane;fontStyle=0;childLayout=stackLayout;horizontal=1;startSize=30;horizontalStack=0;resizeParent=1;resizeParentMax=0;resizeLast=0;collapsible=1;marginBottom=0;whiteSpace=wrap;html=1;" vertex="1" parent="WIyWlLk6GJQsqaUBKTNV-1">
          <mxGeometry x="194" y="20" width="140" height="240" as="geometry" />
        </mxCell>
        <mxCell id="rjAehG90FFGddPImVT8I-17" value="&lt;b&gt;&lt;u&gt;transaction_id&lt;/u&gt;&lt;/b&gt;" style="text;strokeColor=none;fillColor=none;align=left;verticalAlign=middle;spacingLeft=4;spacingRight=4;overflow=hidden;points=[[0,0.5],[1,0.5]];portConstraint=eastwest;rotatable=0;whiteSpace=wrap;html=1;" vertex="1" parent="rjAehG90FFGddPImVT8I-16">
          <mxGeometry y="30" width="140" height="30" as="geometry" />
        </mxCell>
        <mxCell id="rjAehG90FFGddPImVT8I-18" value="user_id (Users)" style="text;strokeColor=none;fillColor=none;align=left;verticalAlign=middle;spacingLeft=4;spacingRight=4;overflow=hidden;points=[[0,0.5],[1,0.5]];portConstraint=eastwest;rotatable=0;whiteSpace=wrap;html=1;" vertex="1" parent="rjAehG90FFGddPImVT8I-16">
          <mxGeometry y="60" width="140" height="30" as="geometry" />
        </mxCell>
        <mxCell id="rjAehG90FFGddPImVT8I-19" value="stock_symbol (Stock_Data)" style="text;strokeColor=none;fillColor=none;align=left;verticalAlign=middle;spacingLeft=4;spacingRight=4;overflow=hidden;points=[[0,0.5],[1,0.5]];portConstraint=eastwest;rotatable=0;whiteSpace=wrap;html=1;" vertex="1" parent="rjAehG90FFGddPImVT8I-16">
          <mxGeometry y="90" width="140" height="30" as="geometry" />
        </mxCell>
        <mxCell id="rjAehG90FFGddPImVT8I-20" value="transaction_type" style="text;strokeColor=none;fillColor=none;align=left;verticalAlign=middle;spacingLeft=4;spacingRight=4;overflow=hidden;points=[[0,0.5],[1,0.5]];portConstraint=eastwest;rotatable=0;whiteSpace=wrap;html=1;" vertex="1" parent="rjAehG90FFGddPImVT8I-16">
          <mxGeometry y="120" width="140" height="30" as="geometry" />
        </mxCell>
        <mxCell id="rjAehG90FFGddPImVT8I-21" value="quantity" style="text;strokeColor=none;fillColor=none;align=left;verticalAlign=middle;spacingLeft=4;spacingRight=4;overflow=hidden;points=[[0,0.5],[1,0.5]];portConstraint=eastwest;rotatable=0;whiteSpace=wrap;html=1;" vertex="1" parent="rjAehG90FFGddPImVT8I-16">
          <mxGeometry y="150" width="140" height="30" as="geometry" />
        </mxCell>
        <mxCell id="rjAehG90FFGddPImVT8I-22" value="price_per_share" style="text;strokeColor=none;fillColor=none;align=left;verticalAlign=middle;spacingLeft=4;spacingRight=4;overflow=hidden;points=[[0,0.5],[1,0.5]];portConstraint=eastwest;rotatable=0;whiteSpace=wrap;html=1;" vertex="1" parent="rjAehG90FFGddPImVT8I-16">
          <mxGeometry y="180" width="140" height="30" as="geometry" />
        </mxCell>
        <mxCell id="rjAehG90FFGddPImVT8I-23" value="transaction_date" style="text;strokeColor=none;fillColor=none;align=left;verticalAlign=middle;spacingLeft=4;spacingRight=4;overflow=hidden;points=[[0,0.5],[1,0.5]];portConstraint=eastwest;rotatable=0;whiteSpace=wrap;html=1;" vertex="1" parent="rjAehG90FFGddPImVT8I-16">
          <mxGeometry y="210" width="140" height="30" as="geometry" />
        </mxCell>
        <mxCell id="rjAehG90FFGddPImVT8I-26" value="Watch_List" style="swimlane;fontStyle=0;childLayout=stackLayout;horizontal=1;startSize=30;horizontalStack=0;resizeParent=1;resizeParentMax=0;resizeLast=0;collapsible=1;marginBottom=0;whiteSpace=wrap;html=1;" vertex="1" parent="WIyWlLk6GJQsqaUBKTNV-1">
          <mxGeometry x="354" y="20" width="140" height="120" as="geometry" />
        </mxCell>
        <mxCell id="rjAehG90FFGddPImVT8I-27" value="&lt;b&gt;&lt;u&gt;watch_list_id&lt;/u&gt;&lt;/b&gt;" style="text;strokeColor=none;fillColor=none;align=left;verticalAlign=middle;spacingLeft=4;spacingRight=4;overflow=hidden;points=[[0,0.5],[1,0.5]];portConstraint=eastwest;rotatable=0;whiteSpace=wrap;html=1;" vertex="1" parent="rjAehG90FFGddPImVT8I-26">
          <mxGeometry y="30" width="140" height="30" as="geometry" />
        </mxCell>
        <mxCell id="rjAehG90FFGddPImVT8I-28" value="user_id (Users)" style="text;strokeColor=none;fillColor=none;align=left;verticalAlign=middle;spacingLeft=4;spacingRight=4;overflow=hidden;points=[[0,0.5],[1,0.5]];portConstraint=eastwest;rotatable=0;whiteSpace=wrap;html=1;" vertex="1" parent="rjAehG90FFGddPImVT8I-26">
          <mxGeometry y="60" width="140" height="30" as="geometry" />
        </mxCell>
        <mxCell id="rjAehG90FFGddPImVT8I-29" value="stock_symbol (Stock_Data)" style="text;strokeColor=none;fillColor=none;align=left;verticalAlign=middle;spacingLeft=4;spacingRight=4;overflow=hidden;points=[[0,0.5],[1,0.5]];portConstraint=eastwest;rotatable=0;whiteSpace=wrap;html=1;" vertex="1" parent="rjAehG90FFGddPImVT8I-26">
          <mxGeometry y="90" width="140" height="30" as="geometry" />
        </mxCell>
        <mxCell id="rjAehG90FFGddPImVT8I-36" value="Orders" style="swimlane;fontStyle=0;childLayout=stackLayout;horizontal=1;startSize=30;horizontalStack=0;resizeParent=1;resizeParentMax=0;resizeLast=0;collapsible=1;marginBottom=0;whiteSpace=wrap;html=1;" vertex="1" parent="WIyWlLk6GJQsqaUBKTNV-1">
          <mxGeometry x="514" y="20" width="140" height="270" as="geometry" />
        </mxCell>
        <mxCell id="rjAehG90FFGddPImVT8I-37" value="&lt;b&gt;&lt;u&gt;order_id&lt;/u&gt;&lt;/b&gt;" style="text;strokeColor=none;fillColor=none;align=left;verticalAlign=middle;spacingLeft=4;spacingRight=4;overflow=hidden;points=[[0,0.5],[1,0.5]];portConstraint=eastwest;rotatable=0;whiteSpace=wrap;html=1;" vertex="1" parent="rjAehG90FFGddPImVT8I-36">
          <mxGeometry y="30" width="140" height="30" as="geometry" />
        </mxCell>
        <mxCell id="rjAehG90FFGddPImVT8I-38" value="user_id (Users)" style="text;strokeColor=none;fillColor=none;align=left;verticalAlign=middle;spacingLeft=4;spacingRight=4;overflow=hidden;points=[[0,0.5],[1,0.5]];portConstraint=eastwest;rotatable=0;whiteSpace=wrap;html=1;" vertex="1" parent="rjAehG90FFGddPImVT8I-36">
          <mxGeometry y="60" width="140" height="30" as="geometry" />
        </mxCell>
        <mxCell id="rjAehG90FFGddPImVT8I-39" value="stock_symbol (Stock_Data)" style="text;strokeColor=none;fillColor=none;align=left;verticalAlign=middle;spacingLeft=4;spacingRight=4;overflow=hidden;points=[[0,0.5],[1,0.5]];portConstraint=eastwest;rotatable=0;whiteSpace=wrap;html=1;" vertex="1" parent="rjAehG90FFGddPImVT8I-36">
          <mxGeometry y="90" width="140" height="30" as="geometry" />
        </mxCell>
        <mxCell id="rjAehG90FFGddPImVT8I-40" value="order_type" style="text;strokeColor=none;fillColor=none;align=left;verticalAlign=middle;spacingLeft=4;spacingRight=4;overflow=hidden;points=[[0,0.5],[1,0.5]];portConstraint=eastwest;rotatable=0;whiteSpace=wrap;html=1;" vertex="1" parent="rjAehG90FFGddPImVT8I-36">
          <mxGeometry y="120" width="140" height="30" as="geometry" />
        </mxCell>
        <mxCell id="rjAehG90FFGddPImVT8I-41" value="trigger_price" style="text;strokeColor=none;fillColor=none;align=left;verticalAlign=middle;spacingLeft=4;spacingRight=4;overflow=hidden;points=[[0,0.5],[1,0.5]];portConstraint=eastwest;rotatable=0;whiteSpace=wrap;html=1;" vertex="1" parent="rjAehG90FFGddPImVT8I-36">
          <mxGeometry y="150" width="140" height="30" as="geometry" />
        </mxCell>
        <mxCell id="rjAehG90FFGddPImVT8I-42" value="quantity" style="text;strokeColor=none;fillColor=none;align=left;verticalAlign=middle;spacingLeft=4;spacingRight=4;overflow=hidden;points=[[0,0.5],[1,0.5]];portConstraint=eastwest;rotatable=0;whiteSpace=wrap;html=1;" vertex="1" parent="rjAehG90FFGddPImVT8I-36">
          <mxGeometry y="180" width="140" height="30" as="geometry" />
        </mxCell>
        <mxCell id="rjAehG90FFGddPImVT8I-43" value="fulfilled" style="text;strokeColor=none;fillColor=none;align=left;verticalAlign=middle;spacingLeft=4;spacingRight=4;overflow=hidden;points=[[0,0.5],[1,0.5]];portConstraint=eastwest;rotatable=0;whiteSpace=wrap;html=1;" vertex="1" parent="rjAehG90FFGddPImVT8I-36">
          <mxGeometry y="210" width="140" height="30" as="geometry" />
        </mxCell>
        <mxCell id="rjAehG90FFGddPImVT8I-44" value="order_date" style="text;strokeColor=none;fillColor=none;align=left;verticalAlign=middle;spacingLeft=4;spacingRight=4;overflow=hidden;points=[[0,0.5],[1,0.5]];portConstraint=eastwest;rotatable=0;whiteSpace=wrap;html=1;" vertex="1" parent="rjAehG90FFGddPImVT8I-36">
          <mxGeometry y="240" width="140" height="30" as="geometry" />
        </mxCell>
        <mxCell id="rjAehG90FFGddPImVT8I-46" value="User_Reset" style="swimlane;fontStyle=0;childLayout=stackLayout;horizontal=1;startSize=30;horizontalStack=0;resizeParent=1;resizeParentMax=0;resizeLast=0;collapsible=1;marginBottom=0;whiteSpace=wrap;html=1;" vertex="1" parent="WIyWlLk6GJQsqaUBKTNV-1">
          <mxGeometry x="674" y="20" width="140" height="180" as="geometry" />
        </mxCell>
        <mxCell id="rjAehG90FFGddPImVT8I-47" value="&lt;b&gt;&lt;u&gt;reset_id&lt;/u&gt;&lt;/b&gt;" style="text;strokeColor=none;fillColor=none;align=left;verticalAlign=middle;spacingLeft=4;spacingRight=4;overflow=hidden;points=[[0,0.5],[1,0.5]];portConstraint=eastwest;rotatable=0;whiteSpace=wrap;html=1;" vertex="1" parent="rjAehG90FFGddPImVT8I-46">
          <mxGeometry y="30" width="140" height="30" as="geometry" />
        </mxCell>
        <mxCell id="rjAehG90FFGddPImVT8I-48" value="user_id (Users)" style="text;strokeColor=none;fillColor=none;align=left;verticalAlign=middle;spacingLeft=4;spacingRight=4;overflow=hidden;points=[[0,0.5],[1,0.5]];portConstraint=eastwest;rotatable=0;whiteSpace=wrap;html=1;" vertex="1" parent="rjAehG90FFGddPImVT8I-46">
          <mxGeometry y="60" width="140" height="30" as="geometry" />
        </mxCell>
        <mxCell id="rjAehG90FFGddPImVT8I-49" value="starting_amount" style="text;strokeColor=none;fillColor=none;align=left;verticalAlign=middle;spacingLeft=4;spacingRight=4;overflow=hidden;points=[[0,0.5],[1,0.5]];portConstraint=eastwest;rotatable=0;whiteSpace=wrap;html=1;" vertex="1" parent="rjAehG90FFGddPImVT8I-46">
          <mxGeometry y="90" width="140" height="30" as="geometry" />
        </mxCell>
        <mxCell id="rjAehG90FFGddPImVT8I-50" value="end_amount" style="text;strokeColor=none;fillColor=none;align=left;verticalAlign=middle;spacingLeft=4;spacingRight=4;overflow=hidden;points=[[0,0.5],[1,0.5]];portConstraint=eastwest;rotatable=0;whiteSpace=wrap;html=1;" vertex="1" parent="rjAehG90FFGddPImVT8I-46">
          <mxGeometry y="120" width="140" height="30" as="geometry" />
        </mxCell>
        <mxCell id="rjAehG90FFGddPImVT8I-51" value="reset_date" style="text;strokeColor=none;fillColor=none;align=left;verticalAlign=middle;spacingLeft=4;spacingRight=4;overflow=hidden;points=[[0,0.5],[1,0.5]];portConstraint=eastwest;rotatable=0;whiteSpace=wrap;html=1;" vertex="1" parent="rjAehG90FFGddPImVT8I-46">
          <mxGeometry y="150" width="140" height="30" as="geometry" />
        </mxCell>
        <mxCell id="rjAehG90FFGddPImVT8I-56" value="Stock_Data" style="swimlane;fontStyle=0;childLayout=stackLayout;horizontal=1;startSize=30;horizontalStack=0;resizeParent=1;resizeParentMax=0;resizeLast=0;collapsible=1;marginBottom=0;whiteSpace=wrap;html=1;" vertex="1" parent="WIyWlLk6GJQsqaUBKTNV-1">
          <mxGeometry x="994" y="20" width="140" height="390" as="geometry" />
        </mxCell>
        <mxCell id="rjAehG90FFGddPImVT8I-57" value="&lt;b&gt;&lt;u&gt;stock_id&lt;/u&gt;&lt;/b&gt;" style="text;strokeColor=none;fillColor=none;align=left;verticalAlign=middle;spacingLeft=4;spacingRight=4;overflow=hidden;points=[[0,0.5],[1,0.5]];portConstraint=eastwest;rotatable=0;whiteSpace=wrap;html=1;" vertex="1" parent="rjAehG90FFGddPImVT8I-56">
          <mxGeometry y="30" width="140" height="30" as="geometry" />
        </mxCell>
        <mxCell id="rjAehG90FFGddPImVT8I-58" value="stock_symbol" style="text;strokeColor=none;fillColor=none;align=left;verticalAlign=middle;spacingLeft=4;spacingRight=4;overflow=hidden;points=[[0,0.5],[1,0.5]];portConstraint=eastwest;rotatable=0;whiteSpace=wrap;html=1;" vertex="1" parent="rjAehG90FFGddPImVT8I-56">
          <mxGeometry y="60" width="140" height="30" as="geometry" />
        </mxCell>
        <mxCell id="rjAehG90FFGddPImVT8I-59" value="company_name" style="text;strokeColor=none;fillColor=none;align=left;verticalAlign=middle;spacingLeft=4;spacingRight=4;overflow=hidden;points=[[0,0.5],[1,0.5]];portConstraint=eastwest;rotatable=0;whiteSpace=wrap;html=1;" vertex="1" parent="rjAehG90FFGddPImVT8I-56">
          <mxGeometry y="90" width="140" height="30" as="geometry" />
        </mxCell>
        <mxCell id="rjAehG90FFGddPImVT8I-60" value="current_price" style="text;strokeColor=none;fillColor=none;align=left;verticalAlign=middle;spacingLeft=4;spacingRight=4;overflow=hidden;points=[[0,0.5],[1,0.5]];portConstraint=eastwest;rotatable=0;whiteSpace=wrap;html=1;" vertex="1" parent="rjAehG90FFGddPImVT8I-56">
          <mxGeometry y="120" width="140" height="30" as="geometry" />
        </mxCell>
        <mxCell id="rjAehG90FFGddPImVT8I-61" value="previous_close" style="text;strokeColor=none;fillColor=none;align=left;verticalAlign=middle;spacingLeft=4;spacingRight=4;overflow=hidden;points=[[0,0.5],[1,0.5]];portConstraint=eastwest;rotatable=0;whiteSpace=wrap;html=1;" vertex="1" parent="rjAehG90FFGddPImVT8I-56">
          <mxGeometry y="150" width="140" height="30" as="geometry" />
        </mxCell>
        <mxCell id="rjAehG90FFGddPImVT8I-62" value="open_price" style="text;strokeColor=none;fillColor=none;align=left;verticalAlign=middle;spacingLeft=4;spacingRight=4;overflow=hidden;points=[[0,0.5],[1,0.5]];portConstraint=eastwest;rotatable=0;whiteSpace=wrap;html=1;" vertex="1" parent="rjAehG90FFGddPImVT8I-56">
          <mxGeometry y="180" width="140" height="30" as="geometry" />
        </mxCell>
        <mxCell id="rjAehG90FFGddPImVT8I-63" value="high_price" style="text;strokeColor=none;fillColor=none;align=left;verticalAlign=middle;spacingLeft=4;spacingRight=4;overflow=hidden;points=[[0,0.5],[1,0.5]];portConstraint=eastwest;rotatable=0;whiteSpace=wrap;html=1;" vertex="1" parent="rjAehG90FFGddPImVT8I-56">
          <mxGeometry y="210" width="140" height="30" as="geometry" />
        </mxCell>
        <mxCell id="rjAehG90FFGddPImVT8I-98" value="volume" style="text;strokeColor=none;fillColor=none;align=left;verticalAlign=middle;spacingLeft=4;spacingRight=4;overflow=hidden;points=[[0,0.5],[1,0.5]];portConstraint=eastwest;rotatable=0;whiteSpace=wrap;html=1;" vertex="1" parent="rjAehG90FFGddPImVT8I-56">
          <mxGeometry y="240" width="140" height="30" as="geometry" />
        </mxCell>
        <mxCell id="rjAehG90FFGddPImVT8I-101" value="market_cap" style="text;strokeColor=none;fillColor=none;align=left;verticalAlign=middle;spacingLeft=4;spacingRight=4;overflow=hidden;points=[[0,0.5],[1,0.5]];portConstraint=eastwest;rotatable=0;whiteSpace=wrap;html=1;" vertex="1" parent="rjAehG90FFGddPImVT8I-56">
          <mxGeometry y="270" width="140" height="30" as="geometry" />
        </mxCell>
        <mxCell id="rjAehG90FFGddPImVT8I-100" value="PE_ratio" style="text;strokeColor=none;fillColor=none;align=left;verticalAlign=middle;spacingLeft=4;spacingRight=4;overflow=hidden;points=[[0,0.5],[1,0.5]];portConstraint=eastwest;rotatable=0;whiteSpace=wrap;html=1;" vertex="1" parent="rjAehG90FFGddPImVT8I-56">
          <mxGeometry y="300" width="140" height="30" as="geometry" />
        </mxCell>
        <mxCell id="rjAehG90FFGddPImVT8I-99" value="dividend_yield" style="text;strokeColor=none;fillColor=none;align=left;verticalAlign=middle;spacingLeft=4;spacingRight=4;overflow=hidden;points=[[0,0.5],[1,0.5]];portConstraint=eastwest;rotatable=0;whiteSpace=wrap;html=1;" vertex="1" parent="rjAehG90FFGddPImVT8I-56">
          <mxGeometry y="330" width="140" height="30" as="geometry" />
        </mxCell>
        <mxCell id="rjAehG90FFGddPImVT8I-64" value="updated_at" style="text;strokeColor=none;fillColor=none;align=left;verticalAlign=middle;spacingLeft=4;spacingRight=4;overflow=hidden;points=[[0,0.5],[1,0.5]];portConstraint=eastwest;rotatable=0;whiteSpace=wrap;html=1;" vertex="1" parent="rjAehG90FFGddPImVT8I-56">
          <mxGeometry y="360" width="140" height="30" as="geometry" />
        </mxCell>
        <mxCell id="rjAehG90FFGddPImVT8I-66" value="Refresh_Tokens" style="swimlane;fontStyle=0;childLayout=stackLayout;horizontal=1;startSize=30;horizontalStack=0;resizeParent=1;resizeParentMax=0;resizeLast=0;collapsible=1;marginBottom=0;whiteSpace=wrap;html=1;" vertex="1" parent="WIyWlLk6GJQsqaUBKTNV-1">
          <mxGeometry x="834" y="20" width="140" height="150" as="geometry" />
        </mxCell>
        <mxCell id="rjAehG90FFGddPImVT8I-67" value="&lt;b&gt;&lt;u&gt;token_id&lt;/u&gt;&lt;/b&gt;" style="text;strokeColor=none;fillColor=none;align=left;verticalAlign=middle;spacingLeft=4;spacingRight=4;overflow=hidden;points=[[0,0.5],[1,0.5]];portConstraint=eastwest;rotatable=0;whiteSpace=wrap;html=1;" vertex="1" parent="rjAehG90FFGddPImVT8I-66">
          <mxGeometry y="30" width="140" height="30" as="geometry" />
        </mxCell>
        <mxCell id="rjAehG90FFGddPImVT8I-68" value="user_id (Users)" style="text;strokeColor=none;fillColor=none;align=left;verticalAlign=middle;spacingLeft=4;spacingRight=4;overflow=hidden;points=[[0,0.5],[1,0.5]];portConstraint=eastwest;rotatable=0;whiteSpace=wrap;html=1;" vertex="1" parent="rjAehG90FFGddPImVT8I-66">
          <mxGeometry y="60" width="140" height="30" as="geometry" />
        </mxCell>
        <mxCell id="rjAehG90FFGddPImVT8I-69" value="token" style="text;strokeColor=none;fillColor=none;align=left;verticalAlign=middle;spacingLeft=4;spacingRight=4;overflow=hidden;points=[[0,0.5],[1,0.5]];portConstraint=eastwest;rotatable=0;whiteSpace=wrap;html=1;" vertex="1" parent="rjAehG90FFGddPImVT8I-66">
          <mxGeometry y="90" width="140" height="30" as="geometry" />
        </mxCell>
        <mxCell id="rjAehG90FFGddPImVT8I-70" value="expiry_date" style="text;strokeColor=none;fillColor=none;align=left;verticalAlign=middle;spacingLeft=4;spacingRight=4;overflow=hidden;points=[[0,0.5],[1,0.5]];portConstraint=eastwest;rotatable=0;whiteSpace=wrap;html=1;" vertex="1" parent="rjAehG90FFGddPImVT8I-66">
          <mxGeometry y="120" width="140" height="30" as="geometry" />
        </mxCell>
        <mxCell id="rjAehG90FFGddPImVT8I-102" value="Stock_Data" style="swimlane;fontStyle=0;childLayout=stackLayout;horizontal=1;startSize=30;horizontalStack=0;resizeParent=1;resizeParentMax=0;resizeLast=0;collapsible=1;marginBottom=0;whiteSpace=wrap;html=1;" vertex="1" parent="WIyWlLk6GJQsqaUBKTNV-1">
          <mxGeometry x="20" y="500" width="140" height="390" as="geometry" />
        </mxCell>
        <mxCell id="rjAehG90FFGddPImVT8I-103" value="&lt;b&gt;&lt;u&gt;stock_id&lt;/u&gt;&lt;/b&gt;" style="text;strokeColor=none;fillColor=none;align=left;verticalAlign=middle;spacingLeft=4;spacingRight=4;overflow=hidden;points=[[0,0.5],[1,0.5]];portConstraint=eastwest;rotatable=0;whiteSpace=wrap;html=1;" vertex="1" parent="rjAehG90FFGddPImVT8I-102">
          <mxGeometry y="30" width="140" height="30" as="geometry" />
        </mxCell>
        <mxCell id="rjAehG90FFGddPImVT8I-104" value="stock_symbol" style="text;strokeColor=none;fillColor=none;align=left;verticalAlign=middle;spacingLeft=4;spacingRight=4;overflow=hidden;points=[[0,0.5],[1,0.5]];portConstraint=eastwest;rotatable=0;whiteSpace=wrap;html=1;" vertex="1" parent="rjAehG90FFGddPImVT8I-102">
          <mxGeometry y="60" width="140" height="30" as="geometry" />
        </mxCell>
        <mxCell id="rjAehG90FFGddPImVT8I-105" value="company_name" style="text;strokeColor=none;fillColor=none;align=left;verticalAlign=middle;spacingLeft=4;spacingRight=4;overflow=hidden;points=[[0,0.5],[1,0.5]];portConstraint=eastwest;rotatable=0;whiteSpace=wrap;html=1;" vertex="1" parent="rjAehG90FFGddPImVT8I-102">
          <mxGeometry y="90" width="140" height="30" as="geometry" />
        </mxCell>
        <mxCell id="rjAehG90FFGddPImVT8I-106" value="current_price" style="text;strokeColor=none;fillColor=none;align=left;verticalAlign=middle;spacingLeft=4;spacingRight=4;overflow=hidden;points=[[0,0.5],[1,0.5]];portConstraint=eastwest;rotatable=0;whiteSpace=wrap;html=1;" vertex="1" parent="rjAehG90FFGddPImVT8I-102">
          <mxGeometry y="120" width="140" height="30" as="geometry" />
        </mxCell>
        <mxCell id="rjAehG90FFGddPImVT8I-107" value="previous_close" style="text;strokeColor=none;fillColor=none;align=left;verticalAlign=middle;spacingLeft=4;spacingRight=4;overflow=hidden;points=[[0,0.5],[1,0.5]];portConstraint=eastwest;rotatable=0;whiteSpace=wrap;html=1;" vertex="1" parent="rjAehG90FFGddPImVT8I-102">
          <mxGeometry y="150" width="140" height="30" as="geometry" />
        </mxCell>
        <mxCell id="rjAehG90FFGddPImVT8I-108" value="open_price" style="text;strokeColor=none;fillColor=none;align=left;verticalAlign=middle;spacingLeft=4;spacingRight=4;overflow=hidden;points=[[0,0.5],[1,0.5]];portConstraint=eastwest;rotatable=0;whiteSpace=wrap;html=1;" vertex="1" parent="rjAehG90FFGddPImVT8I-102">
          <mxGeometry y="180" width="140" height="30" as="geometry" />
        </mxCell>
        <mxCell id="rjAehG90FFGddPImVT8I-109" value="high_price" style="text;strokeColor=none;fillColor=none;align=left;verticalAlign=middle;spacingLeft=4;spacingRight=4;overflow=hidden;points=[[0,0.5],[1,0.5]];portConstraint=eastwest;rotatable=0;whiteSpace=wrap;html=1;" vertex="1" parent="rjAehG90FFGddPImVT8I-102">
          <mxGeometry y="210" width="140" height="30" as="geometry" />
        </mxCell>
        <mxCell id="rjAehG90FFGddPImVT8I-110" value="volume" style="text;strokeColor=none;fillColor=none;align=left;verticalAlign=middle;spacingLeft=4;spacingRight=4;overflow=hidden;points=[[0,0.5],[1,0.5]];portConstraint=eastwest;rotatable=0;whiteSpace=wrap;html=1;" vertex="1" parent="rjAehG90FFGddPImVT8I-102">
          <mxGeometry y="240" width="140" height="30" as="geometry" />
        </mxCell>
        <mxCell id="rjAehG90FFGddPImVT8I-111" value="market_cap" style="text;strokeColor=none;fillColor=none;align=left;verticalAlign=middle;spacingLeft=4;spacingRight=4;overflow=hidden;points=[[0,0.5],[1,0.5]];portConstraint=eastwest;rotatable=0;whiteSpace=wrap;html=1;" vertex="1" parent="rjAehG90FFGddPImVT8I-102">
          <mxGeometry y="270" width="140" height="30" as="geometry" />
        </mxCell>
        <mxCell id="rjAehG90FFGddPImVT8I-112" value="PE_ratio" style="text;strokeColor=none;fillColor=none;align=left;verticalAlign=middle;spacingLeft=4;spacingRight=4;overflow=hidden;points=[[0,0.5],[1,0.5]];portConstraint=eastwest;rotatable=0;whiteSpace=wrap;html=1;" vertex="1" parent="rjAehG90FFGddPImVT8I-102">
          <mxGeometry y="300" width="140" height="30" as="geometry" />
        </mxCell>
        <mxCell id="rjAehG90FFGddPImVT8I-113" value="dividend_yield" style="text;strokeColor=none;fillColor=none;align=left;verticalAlign=middle;spacingLeft=4;spacingRight=4;overflow=hidden;points=[[0,0.5],[1,0.5]];portConstraint=eastwest;rotatable=0;whiteSpace=wrap;html=1;" vertex="1" parent="rjAehG90FFGddPImVT8I-102">
          <mxGeometry y="330" width="140" height="30" as="geometry" />
        </mxCell>
        <mxCell id="rjAehG90FFGddPImVT8I-114" value="updated_at" style="text;strokeColor=none;fillColor=none;align=left;verticalAlign=middle;spacingLeft=4;spacingRight=4;overflow=hidden;points=[[0,0.5],[1,0.5]];portConstraint=eastwest;rotatable=0;whiteSpace=wrap;html=1;" vertex="1" parent="rjAehG90FFGddPImVT8I-102">
          <mxGeometry y="360" width="140" height="30" as="geometry" />
        </mxCell>
        <mxCell id="rjAehG90FFGddPImVT8I-162" style="edgeStyle=orthogonalEdgeStyle;rounded=0;orthogonalLoop=1;jettySize=auto;html=1;startArrow=classic;startFill=1;" edge="1" parent="WIyWlLk6GJQsqaUBKTNV-1" source="rjAehG90FFGddPImVT8I-120" target="rjAehG90FFGddPImVT8I-121">
          <mxGeometry relative="1" as="geometry" />
        </mxCell>
        <mxCell id="rjAehG90FFGddPImVT8I-120" value="Login" style="shape=card;whiteSpace=wrap;html=1;" vertex="1" parent="WIyWlLk6GJQsqaUBKTNV-1">
          <mxGeometry x="545" y="1020" width="80" height="100" as="geometry" />
        </mxCell>
        <mxCell id="rjAehG90FFGddPImVT8I-143" style="edgeStyle=orthogonalEdgeStyle;rounded=0;orthogonalLoop=1;jettySize=auto;html=1;startArrow=block;startFill=0;" edge="1" parent="WIyWlLk6GJQsqaUBKTNV-1" source="rjAehG90FFGddPImVT8I-121" target="rjAehG90FFGddPImVT8I-123">
          <mxGeometry relative="1" as="geometry" />
        </mxCell>
        <mxCell id="rjAehG90FFGddPImVT8I-144" style="edgeStyle=orthogonalEdgeStyle;rounded=0;orthogonalLoop=1;jettySize=auto;html=1;startArrow=block;startFill=0;" edge="1" parent="WIyWlLk6GJQsqaUBKTNV-1" source="rjAehG90FFGddPImVT8I-121" target="rjAehG90FFGddPImVT8I-128">
          <mxGeometry relative="1" as="geometry">
            <Array as="points">
              <mxPoint x="710" y="1160" />
              <mxPoint x="840" y="1160" />
            </Array>
          </mxGeometry>
        </mxCell>
        <mxCell id="rjAehG90FFGddPImVT8I-146" style="edgeStyle=orthogonalEdgeStyle;rounded=0;orthogonalLoop=1;jettySize=auto;html=1;startArrow=block;startFill=0;" edge="1" parent="WIyWlLk6GJQsqaUBKTNV-1" source="rjAehG90FFGddPImVT8I-121" target="rjAehG90FFGddPImVT8I-124">
          <mxGeometry relative="1" as="geometry">
            <Array as="points">
              <mxPoint x="710" y="1160" />
              <mxPoint x="580" y="1160" />
            </Array>
          </mxGeometry>
        </mxCell>
        <mxCell id="rjAehG90FFGddPImVT8I-148" style="edgeStyle=orthogonalEdgeStyle;rounded=0;orthogonalLoop=1;jettySize=auto;html=1;startArrow=block;startFill=0;" edge="1" parent="WIyWlLk6GJQsqaUBKTNV-1" source="rjAehG90FFGddPImVT8I-121" target="rjAehG90FFGddPImVT8I-125">
          <mxGeometry relative="1" as="geometry">
            <Array as="points">
              <mxPoint x="1046" y="1070" />
              <mxPoint x="1046" y="1340" />
              <mxPoint x="736" y="1340" />
            </Array>
          </mxGeometry>
        </mxCell>
        <mxCell id="rjAehG90FFGddPImVT8I-163" style="edgeStyle=orthogonalEdgeStyle;rounded=0;orthogonalLoop=1;jettySize=auto;html=1;startArrow=classic;startFill=1;" edge="1" parent="WIyWlLk6GJQsqaUBKTNV-1" source="rjAehG90FFGddPImVT8I-121" target="rjAehG90FFGddPImVT8I-1">
          <mxGeometry relative="1" as="geometry">
            <Array as="points">
              <mxPoint x="710" y="910" />
            </Array>
          </mxGeometry>
        </mxCell>
        <mxCell id="rjAehG90FFGddPImVT8I-121" value="Home&lt;br&gt;(Nav,&lt;br&gt;Search)" style="shape=card;whiteSpace=wrap;html=1;" vertex="1" parent="WIyWlLk6GJQsqaUBKTNV-1">
          <mxGeometry x="670" y="1020" width="80" height="100" as="geometry" />
        </mxCell>
        <mxCell id="rjAehG90FFGddPImVT8I-141" style="edgeStyle=orthogonalEdgeStyle;rounded=0;orthogonalLoop=1;jettySize=auto;html=1;startArrow=classic;startFill=1;" edge="1" parent="WIyWlLk6GJQsqaUBKTNV-1" source="rjAehG90FFGddPImVT8I-122" target="rjAehG90FFGddPImVT8I-120">
          <mxGeometry relative="1" as="geometry" />
        </mxCell>
        <mxCell id="rjAehG90FFGddPImVT8I-122" value="Register" style="shape=card;whiteSpace=wrap;html=1;" vertex="1" parent="WIyWlLk6GJQsqaUBKTNV-1">
          <mxGeometry x="414" y="1020" width="80" height="100" as="geometry" />
        </mxCell>
        <mxCell id="rjAehG90FFGddPImVT8I-152" style="edgeStyle=orthogonalEdgeStyle;rounded=0;orthogonalLoop=1;jettySize=auto;html=1;startArrow=block;startFill=0;" edge="1" parent="WIyWlLk6GJQsqaUBKTNV-1" source="rjAehG90FFGddPImVT8I-123" target="rjAehG90FFGddPImVT8I-125">
          <mxGeometry relative="1" as="geometry" />
        </mxCell>
        <mxCell id="rjAehG90FFGddPImVT8I-123" value="Watchlist" style="shape=card;whiteSpace=wrap;html=1;" vertex="1" parent="WIyWlLk6GJQsqaUBKTNV-1">
          <mxGeometry x="670" y="1200" width="80" height="100" as="geometry" />
        </mxCell>
        <mxCell id="rjAehG90FFGddPImVT8I-155" style="edgeStyle=orthogonalEdgeStyle;rounded=0;orthogonalLoop=1;jettySize=auto;html=1;startArrow=block;startFill=0;" edge="1" parent="WIyWlLk6GJQsqaUBKTNV-1" source="rjAehG90FFGddPImVT8I-124" target="rjAehG90FFGddPImVT8I-127">
          <mxGeometry relative="1" as="geometry" />
        </mxCell>
        <mxCell id="rjAehG90FFGddPImVT8I-156" style="edgeStyle=orthogonalEdgeStyle;rounded=0;orthogonalLoop=1;jettySize=auto;html=1;startArrow=block;startFill=0;" edge="1" parent="WIyWlLk6GJQsqaUBKTNV-1" source="rjAehG90FFGddPImVT8I-124" target="rjAehG90FFGddPImVT8I-126">
          <mxGeometry relative="1" as="geometry" />
        </mxCell>
        <mxCell id="rjAehG90FFGddPImVT8I-124" value="Portfolio" style="shape=card;whiteSpace=wrap;html=1;" vertex="1" parent="WIyWlLk6GJQsqaUBKTNV-1">
          <mxGeometry x="540" y="1200" width="80" height="100" as="geometry" />
        </mxCell>
        <mxCell id="rjAehG90FFGddPImVT8I-149" style="edgeStyle=orthogonalEdgeStyle;rounded=0;orthogonalLoop=1;jettySize=auto;html=1;startArrow=block;startFill=0;" edge="1" parent="WIyWlLk6GJQsqaUBKTNV-1" source="rjAehG90FFGddPImVT8I-125" target="rjAehG90FFGddPImVT8I-129">
          <mxGeometry relative="1" as="geometry" />
        </mxCell>
        <mxCell id="rjAehG90FFGddPImVT8I-125" value="Stock&lt;br&gt;Detail" style="shape=card;whiteSpace=wrap;html=1;" vertex="1" parent="WIyWlLk6GJQsqaUBKTNV-1">
          <mxGeometry x="670" y="1380" width="80" height="100" as="geometry" />
        </mxCell>
        <mxCell id="rjAehG90FFGddPImVT8I-158" style="edgeStyle=orthogonalEdgeStyle;rounded=0;orthogonalLoop=1;jettySize=auto;html=1;startArrow=block;startFill=0;" edge="1" parent="WIyWlLk6GJQsqaUBKTNV-1" source="rjAehG90FFGddPImVT8I-127" target="rjAehG90FFGddPImVT8I-151">
          <mxGeometry relative="1" as="geometry" />
        </mxCell>
        <mxCell id="rjAehG90FFGddPImVT8I-127" value="Order&lt;br&gt;History" style="shape=card;whiteSpace=wrap;html=1;" vertex="1" parent="WIyWlLk6GJQsqaUBKTNV-1">
          <mxGeometry x="540" y="1380" width="80" height="100" as="geometry" />
        </mxCell>
        <mxCell id="rjAehG90FFGddPImVT8I-128" value="Profile" style="shape=card;whiteSpace=wrap;html=1;" vertex="1" parent="WIyWlLk6GJQsqaUBKTNV-1">
          <mxGeometry x="800" y="1200" width="80" height="100" as="geometry" />
        </mxCell>
        <mxCell id="rjAehG90FFGddPImVT8I-129" value="Order&lt;br&gt;Placer" style="shape=card;whiteSpace=wrap;html=1;" vertex="1" parent="WIyWlLk6GJQsqaUBKTNV-1">
          <mxGeometry x="671" y="1560" width="80" height="100" as="geometry" />
        </mxCell>
        <mxCell id="rjAehG90FFGddPImVT8I-161" style="edgeStyle=orthogonalEdgeStyle;rounded=0;orthogonalLoop=1;jettySize=auto;html=1;startArrow=block;startFill=0;" edge="1" parent="WIyWlLk6GJQsqaUBKTNV-1" source="rjAehG90FFGddPImVT8I-150" target="rjAehG90FFGddPImVT8I-125">
          <mxGeometry relative="1" as="geometry">
            <Array as="points">
              <mxPoint x="440" y="1690" />
              <mxPoint x="786" y="1690" />
              <mxPoint x="786" y="1430" />
            </Array>
          </mxGeometry>
        </mxCell>
        <mxCell id="rjAehG90FFGddPImVT8I-150" value="Transaction&lt;br&gt;Detail" style="shape=card;whiteSpace=wrap;html=1;" vertex="1" parent="WIyWlLk6GJQsqaUBKTNV-1">
          <mxGeometry x="400" y="1560" width="80" height="100" as="geometry" />
        </mxCell>
        <mxCell id="rjAehG90FFGddPImVT8I-160" style="edgeStyle=orthogonalEdgeStyle;rounded=0;orthogonalLoop=1;jettySize=auto;html=1;startArrow=blockThin;startFill=0;" edge="1" parent="WIyWlLk6GJQsqaUBKTNV-1" source="rjAehG90FFGddPImVT8I-151" target="rjAehG90FFGddPImVT8I-125">
          <mxGeometry relative="1" as="geometry">
            <Array as="points">
              <mxPoint x="596" y="1520" />
              <mxPoint x="686" y="1520" />
            </Array>
          </mxGeometry>
        </mxCell>
        <mxCell id="rjAehG90FFGddPImVT8I-151" value="Order&lt;br&gt;Detail" style="shape=card;whiteSpace=wrap;html=1;" vertex="1" parent="WIyWlLk6GJQsqaUBKTNV-1">
          <mxGeometry x="540" y="1560" width="80" height="100" as="geometry" />
        </mxCell>
        <mxCell id="rjAehG90FFGddPImVT8I-157" style="edgeStyle=orthogonalEdgeStyle;rounded=0;orthogonalLoop=1;jettySize=auto;html=1;startArrow=block;startFill=0;" edge="1" parent="WIyWlLk6GJQsqaUBKTNV-1" source="rjAehG90FFGddPImVT8I-126" target="rjAehG90FFGddPImVT8I-150">
          <mxGeometry relative="1" as="geometry">
            <Array as="points">
              <mxPoint x="446" y="1540" />
              <mxPoint x="446" y="1540" />
            </Array>
          </mxGeometry>
        </mxCell>
        <mxCell id="rjAehG90FFGddPImVT8I-126" value="Transaction&lt;br&gt;History" style="shape=card;whiteSpace=wrap;html=1;" vertex="1" parent="WIyWlLk6GJQsqaUBKTNV-1">
          <mxGeometry x="406" y="1380" width="80" height="100" as="geometry" />
        </mxCell>
      </root>
    </mxGraphModel>
  </diagram>
</mxfile>
